# xmcd CD database file
#
# Track frame offsets:
#	150
#	19032
#	35665
#	49639
#	72657
#	88173
#	99976
#	113030
#	142863
#	154941
#	172169
#	188734
#	213549
#	231919
#	246621
#	277656
#	295351
#	306821
#
# Disc length: 4284 seconds
#
# Revision: 0
# Processed by: cddbd v1.5.2PL0 Copyright (c) Steve Scherf et al.
# Submitted via: CDex 1.70beta2
#
DISCID=0910ba12
DTITLE=Nina Simone - Forbidden Fruit
DYEAR=1900
DGENRE=Jazz
TTITLE0=Nina Simone - Rags and Old Iron
TTITLE1=Nina Simone - No Good Man
TTITLE2=Nina Simone - Gin House Blues
TTITLE3=Nina Simone - I'll Look Around
TTITLE4=Nina Simone - I Love To Love
TTITLE5=Nina Simone - Work Song
TTITLE6=Nina Simone - Where Can I Go Without You
TTITLE7=Nina Simone - Just Say I Love Him
TTITLE8=Nina Simone - Memphis In June
TTITLE9=Nina Simone - Forbidden Fruit
TTITLE10=Nina Simone - My Baby Just Cares For Me
TTITLE11=Nina Simone - Good Bait
TTITLE12=Nina Simone - For All We Know
TTITLE13=Nina Simone - African Mailman
TTITLE14=Nina Simone - Central Park Blues
TTITLE15=Nina Simone - Plain Gold Ring
TTITLE16=Nina Simone - He Needs Me
TTITLE17=Nina Simone - Don't Smoke In Bed
EXTD=
EXTT0=
EXTT1=
EXTT2=
EXTT3=
EXTT4=
EXTT5=
EXTT6=
EXTT7=
EXTT8=
EXTT9=
EXTT10=
EXTT11=
EXTT12=
EXTT13=
EXTT14=
EXTT15=
EXTT16=
EXTT17=
PLAYORDER=
